<?xml version="1.0" standalone="no"?>
<!DOCTYPE svg PUBLIC "-//W3C//DTD SVG 20010904//EN"
 "http://www.w3.org/TR/2001/REC-SVG-20010904/DTD/svg10.dtd">
<svg version="1.0" xmlns="http://www.w3.org/2000/svg"
 width="512.000000pt" height="512.000000pt" viewBox="0 0 512.000000 512.000000"
 preserveAspectRatio="xMidYMid meet">
<metadata>
Created by potrace 1.16, written by Peter Selinger 2001-2019
</metadata>
<g transform="translate(0.000000,512.000000) scale(0.100000,-0.100000)"
fill="#000000" stroke="none">
<path d="M2235 5105 c-462 -60 -885 -237 -1255 -523 -117 -91 -316 -287 -413
-407 -276 -342 -459 -746 -537 -1186 -28 -156 -39 -531 -21 -702 43 -399 182
-790 398 -1122 98 -150 184 -257 318 -394 419 -430 948 -690 1550 -760 134
-16 460 -13 605 4 748 93 1416 512 1833 1150 210 321 344 690 392 1075 20 162
20 477 0 640 -92 742 -510 1412 -1140 1826 -329 216 -695 350 -1085 399 -152
18 -501 18 -645 0z m604 -651 c415 -61 782 -241 1085 -534 327 -316 529 -723
585 -1180 14 -109 14 -351 1 -460 -91 -729 -575 -1348 -1258 -1606 -77 -29
-141 -31 -173 -5 l-24 19 -6 359 c-6 404 -11 435 -87 544 l-38 54 105 18 c245
40 408 114 541 247 133 133 202 287 230 512 15 120 8 321 -14 403 -22 82 -77
191 -130 259 l-44 57 15 47 c33 110 26 289 -16 415 l-18 52 -58 3 c-97 5 -255
-54 -421 -160 l-63 -39 -58 15 c-246 63 -620 63 -866 0 l-58 -15 -63 39 c-166
106 -324 165 -421 160 l-58 -3 -18 -52 c-42 -126 -49 -305 -15 -415 l14 -48
-38 -47 c-52 -66 -104 -165 -130 -248 -29 -90 -38 -296 -20 -428 30 -225 99
-377 230 -507 72 -73 101 -94 190 -138 116 -57 233 -94 361 -113 46 -7 85 -13
87 -15 2 -1 -12 -25 -31 -53 -34 -48 -77 -157 -77 -192 0 -35 -161 -76 -264
-66 -124 12 -219 73 -299 195 -102 154 -249 241 -358 212 -62 -17 -52 -53 30
-109 94 -65 156 -145 216 -279 69 -155 190 -239 376 -263 73 -9 231 1 273 17
14 5 16 -16 16 -200 l0 -207 -26 -26 c-39 -39 -109 -30 -256 34 -646 280
-1091 874 -1178 1573 -13 109 -13 351 1 460 46 373 193 721 426 1010 71 88
233 246 318 311 269 206 589 343 915 393 132 20 435 20 569 0z"/>
</g>
</svg>
