
<?xml version="1.0" standalone="no"?>
<!DOCTYPE svg PUBLIC "-//W3C//DTD SVG 20010904//EN"
 "http://www.w3.org/TR/2001/REC-SVG-20010904/DTD/svg10.dtd">
<svg version="1.0" xmlns="http://www.w3.org/2000/svg"
 width="512.000000pt" height="512.000000pt" viewBox="0 0 512.000000 512.000000"
 preserveAspectRatio="xMidYMid meet">
<metadata>
Created by potrace 1.16, written by Peter Selinger 2001-2019
</metadata>
<g transform="translate(0.000000,512.000000) scale(0.100000,-0.100000)"
fill="#000000" stroke="none">
<path d="M2235 5105 c-751 -98 -1413 -515 -1828 -1150 -62 -95 -180 -309 -162
-292 5 4 134 -117 286 -269 l277 -277 6 99 c21 327 74 515 190 677 60 86 189
206 273 256 240 143 470 168 1468 158 642 -6 725 -13 907 -73 140 -47 241
-108 345 -207 168 -161 251 -335 289 -604 21 -143 31 -1193 15 -1498 -12 -247
-29 -349 -75 -480 -47 -131 -104 -223 -199 -322 -199 -207 -397 -283 -811
-309 l-99 -6 277 -277 c152 -152 273 -281 269 -285 -4 -5 37 15 92 44 743 394
1247 1122 1350 1950 20 162 20 478 0 640 -92 744 -509 1411 -1140 1826 -329
216 -695 350 -1085 399 -152 18 -501 18 -645 0z"/>
<path d="M1833 3979 c-380 -24 -588 -180 -664 -497 -21 -86 -38 -342 -39 -567
l0 -120 300 -300 300 -300 -20 59 c-78 228 -61 495 44 704 118 233 330 405
588 474 119 32 318 32 437 0 324 -87 566 -329 652 -653 32 -120 32 -318 0
-438 -84 -316 -317 -555 -628 -647 -167 -49 -393 -42 -547 17 -28 10 -53 19
-56 19 -3 0 130 -135 295 -300 l300 -300 105 0 c224 1 504 19 586 39 251 61
401 210 465 461 33 127 41 379 36 1063 -4 527 -7 647 -21 725 -52 296 -214
473 -490 537 -37 9 -133 20 -214 25 -172 11 -1251 11 -1429 -1z m1758 -302
c66 -35 102 -93 107 -171 5 -74 -16 -125 -72 -174 -150 -131 -389 22 -337 216
34 125 186 190 302 129z"/>
<path d="M2412 3120 c-140 -37 -252 -117 -330 -235 -118 -175 -132 -390 -40
-581 50 -105 160 -212 269 -263 195 -91 399 -77 574 41 264 176 333 535 154
803 -106 158 -258 242 -454 251 -79 3 -116 0 -173 -16z"/>
</g>
</svg>
